<?xml version="1.0" encoding="UTF-8" standalone="no"?>
<svg width="44px" height="44px" viewBox="0 0 44 44" version="1.1" xmlns="http://www.w3.org/2000/svg" xmlns:xlink="http://www.w3.org/1999/xlink" xmlns:sketch="http://www.bohemiancoding.com/sketch/ns">
    <!-- Generator: Sketch 3.0.3 (7891) - http://www.bohemiancoding.com/sketch -->
    <title>github</title>
    <desc>Created with Sketch.</desc>
    <defs></defs>
    <g id="Page-1" stroke="none" stroke-width="1" fill="none" fill-rule="evenodd" sketch:type="MSPage">
        <g id="layout" sketch:type="MSArtboardGroup" transform="translate(-867.000000, -1381.000000)" fill="#FAFAFA">
            <path d="M910.978,1403 C910.978,1415.1605 901.1385,1425 888.978,1425 C876.8395,1425 867,1415.1605 867,1403 C867,1390.8615 876.8395,1381 888.978,1381 C901.1385,1381 910.978,1390.8615 910.978,1403 L910.978,1403 Z M894.5,1420.875 C902.0625,1418.3835 907.5405,1411.33525 907.5405,1403 C907.5405,1392.75212 899.225875,1384.4375 888.978,1384.4375 C878.75075,1384.4375 870.4375,1392.75075 870.4375,1403 C870.4375,1411.33525 875.9375,1418.40413 883.522,1420.875 L883.522,1417.37288 C878.10725,1418.598 876.96875,1414.83738 876.96875,1414.83738 C876.109375,1412.625 874.863625,1412.04475 874.863625,1412.04475 C873.122875,1410.86362 874.992875,1410.88425 874.992875,1410.88425 C876.9055,1411.0135 877.91475,1412.8395 877.91475,1412.8395 C879.71875,1415.93325 882.70525,1414.81675 883.62925,1414.36438 C883.908375,1413.01138 884.961625,1412.73087 885.305375,1412.62362 C880.42825,1412.108 875.207375,1410.34662 875.207375,1401.90275 C875.207375,1399.53913 876.04475,1397.60587 877.41975,1396.10163 C877.20525,1395.54337 876.453125,1393.35163 877.63425,1390.36513 C877.63425,1390.36513 879.46025,1389.78625 883.58525,1392.5775 C885.304,1392.1045 887.152,1391.868 889,1391.84738 C890.826,1391.86937 892.674,1392.10587 894.41475,1392.5775 C898.53975,1389.78488 900.34375,1390.36513 900.34375,1390.36513 C901.524875,1393.35163 900.79475,1395.54337 900.55825,1396.10163 C901.95525,1397.60587 902.792625,1399.53913 902.792625,1401.90275 C902.792625,1410.34662 897.57175,1412.086 892.694625,1412.60163 C893.576,1413.20525 894.5,1414.34375 894.5,1416.5135 L894.5,1420.875 L894.5,1420.875 Z" id="github" sketch:type="MSShapeGroup"></path>
        </g>
    </g>
</svg>