<?xml version="1.0" encoding="UTF-8" standalone="no"?>
<svg width="44px" height="45px" viewBox="0 0 44 45" version="1.1" xmlns="http://www.w3.org/2000/svg" xmlns:xlink="http://www.w3.org/1999/xlink" xmlns:sketch="http://www.bohemiancoding.com/sketch/ns">
    <!-- Generator: Sketch 3.0.3 (7891) - http://www.bohemiancoding.com/sketch -->
    <title>dribbble</title>
    <desc>Created with Sketch.</desc>
    <defs></defs>
    <g id="Page-1" stroke="none" stroke-width="1" fill="none" fill-rule="evenodd" sketch:type="MSPage">
        <g id="layout" sketch:type="MSArtboardGroup" transform="translate(-757.000000, -1383.000000)" fill="#FAFAFA">
            <path d="M778.987429,1383.01257 C766.863857,1383.01257 757,1392.87486 757,1405 C757,1417.12514 766.863857,1426.98743 778.987429,1426.98743 C791.112571,1426.98743 800.974857,1417.12514 800.974857,1405 C800.974857,1392.87486 791.112571,1383.01257 778.987429,1383.01257 L778.987429,1383.01257 L778.987429,1383.01257 L778.987429,1383.01257 Z M793.524714,1393.15143 C796.141143,1396.34771 797.725143,1400.41771 797.766,1404.85071 C797.145286,1404.72029 790.936571,1403.46 784.688571,1404.24571 C784.556571,1403.92514 784.423,1403.60143 784.283143,1403.27771 C783.893429,1402.36157 783.473857,1401.45171 783.038571,1400.55757 C789.982714,1397.72114 793.128714,1393.68729 793.524714,1393.15143 C793.524714,1393.15143 793.128714,1393.68729 793.524714,1393.15143 L793.524714,1393.15143 L793.524714,1393.15143 Z M778.987429,1386.24657 C783.759857,1386.24657 788.120571,1388.038 791.437857,1390.97971 C791.1,1391.46214 788.271429,1395.26186 781.594429,1397.76357 C778.516,1392.108 775.104429,1387.46286 774.585857,1386.76829 C775.998571,1386.43043 777.472571,1386.24657 778.987429,1386.24657 C778.987429,1386.24657 777.472571,1386.24657 778.987429,1386.24657 L778.987429,1386.24657 L778.987429,1386.24657 Z M771.003,1388.03171 C771.498,1388.71214 774.853,1393.362 777.966,1398.89343 C769.181714,1401.22543 761.444,1401.19243 760.603286,1401.18143 C761.821143,1395.353 765.748143,1390.50986 771.003,1388.03171 C771.003,1388.03171 765.748143,1390.50986 771.003,1388.03171 L771.003,1388.03171 L771.003,1388.03171 Z M760.205714,1405.02986 C760.205714,1404.83814 760.208857,1404.64643 760.215143,1404.45629 C761.035429,1404.47357 770.137143,1404.58986 779.517,1401.78329 C780.054429,1402.83614 780.568286,1403.90471 781.039714,1404.97014 C780.791429,1405.04086 780.544714,1405.11471 780.299571,1405.19486 C770.613286,1408.32514 765.459,1416.85957 765.033143,1417.58871 C762.034857,1414.25729 760.205714,1409.85257 760.205714,1405.02986 C760.205714,1405.02986 760.205714,1409.85257 760.205714,1405.02986 L760.205714,1405.02986 L760.205714,1405.02986 Z M778.987429,1423.81 C774.645571,1423.81 770.643143,1422.32971 767.459429,1419.84686 C767.797286,1419.15543 771.600143,1411.809 782.193143,1408.11771 L782.317286,1408.07686 C784.954143,1414.92829 786.044714,1420.67186 786.324429,1422.31714 C784.067857,1423.27729 781.588143,1423.81 778.987429,1423.81 L778.987429,1423.81 L778.987429,1423.81 L778.987429,1423.81 Z M789.481429,1420.598 C789.289714,1419.45557 788.288714,1413.95714 785.832571,1407.20786 C791.719143,1406.265 796.889143,1407.80814 797.531857,1408.01086 C796.694286,1413.23586 793.694429,1417.749 789.481429,1420.598 C789.481429,1420.598 793.694429,1417.749 789.481429,1420.598 L789.481429,1420.598 L789.481429,1420.598 Z" id="dribbble" sketch:type="MSShapeGroup"></path>
        </g>
    </g>
</svg>